<mxfile host="app.diagrams.net" modified="2020-10-13T09:26:59.058Z" agent="5.0 (Macintosh; Intel Mac OS X 10_15_6) AppleWebKit/537.36 (KHTML, like Gecko) Chrome/85.0.4183.83 Safari/537.36" etag="EuVhjNTDj6iCiSW0ESH7" version="13.7.3" type="github">
  <diagram id="ZphT7NHtfdJzJYN91oFM" name="Page-1">
    <mxGraphModel dx="1180" dy="708" grid="1" gridSize="10" guides="1" tooltips="1" connect="1" arrows="1" fold="1" page="1" pageScale="1" pageWidth="700" pageHeight="1000" math="0" shadow="0">
      <root>
        <mxCell id="0" />
        <mxCell id="1" parent="0" />
        <mxCell id="SWnautVr8U_Q0bgiy1bZ-1" value="Editorial board" style="rounded=0;whiteSpace=wrap;html=1;" parent="1" vertex="1">
          <mxGeometry x="260" y="70" width="120" height="60" as="geometry" />
        </mxCell>
        <mxCell id="SWnautVr8U_Q0bgiy1bZ-6" value="Produces magazines for" style="edgeStyle=orthogonalEdgeStyle;rounded=0;orthogonalLoop=1;jettySize=auto;html=1;" parent="1" source="SWnautVr8U_Q0bgiy1bZ-2" target="SWnautVr8U_Q0bgiy1bZ-3" edge="1">
          <mxGeometry relative="1" as="geometry" />
        </mxCell>
        <mxCell id="SWnautVr8U_Q0bgiy1bZ-2" value="Production" style="rounded=0;whiteSpace=wrap;html=1;fillColor=#d5e8d4;strokeColor=#82b366;" parent="1" vertex="1">
          <mxGeometry x="260" y="180" width="120" height="60" as="geometry" />
        </mxCell>
        <mxCell id="SWnautVr8U_Q0bgiy1bZ-7" value="Stores magazines for" style="edgeStyle=orthogonalEdgeStyle;rounded=0;orthogonalLoop=1;jettySize=auto;html=1;" parent="1" source="SWnautVr8U_Q0bgiy1bZ-3" target="SWnautVr8U_Q0bgiy1bZ-4" edge="1">
          <mxGeometry relative="1" as="geometry" />
        </mxCell>
        <mxCell id="SWnautVr8U_Q0bgiy1bZ-3" value="Warehouse" style="rounded=0;whiteSpace=wrap;html=1;" parent="1" vertex="1">
          <mxGeometry x="260" y="290" width="120" height="60" as="geometry" />
        </mxCell>
        <mxCell id="SWnautVr8U_Q0bgiy1bZ-9" value="Distributes magazines to" style="edgeStyle=orthogonalEdgeStyle;rounded=0;orthogonalLoop=1;jettySize=auto;html=1;entryX=0.5;entryY=0;entryDx=0;entryDy=0;" parent="1" source="SWnautVr8U_Q0bgiy1bZ-4" target="SWnautVr8U_Q0bgiy1bZ-10" edge="1">
          <mxGeometry relative="1" as="geometry">
            <mxPoint x="320" y="510" as="targetPoint" />
          </mxGeometry>
        </mxCell>
        <mxCell id="SWnautVr8U_Q0bgiy1bZ-4" value="Distribution" style="rounded=0;whiteSpace=wrap;html=1;" parent="1" vertex="1">
          <mxGeometry x="260" y="400" width="120" height="60" as="geometry" />
        </mxCell>
        <mxCell id="SWnautVr8U_Q0bgiy1bZ-5" value="Creates magazine content for" style="endArrow=classic;html=1;exitX=0.5;exitY=1;exitDx=0;exitDy=0;" parent="1" source="SWnautVr8U_Q0bgiy1bZ-1" target="SWnautVr8U_Q0bgiy1bZ-2" edge="1">
          <mxGeometry width="50" height="50" relative="1" as="geometry">
            <mxPoint x="330" y="270" as="sourcePoint" />
            <mxPoint x="380" y="220" as="targetPoint" />
          </mxGeometry>
        </mxCell>
        <mxCell id="SWnautVr8U_Q0bgiy1bZ-12" style="edgeStyle=orthogonalEdgeStyle;rounded=0;orthogonalLoop=1;jettySize=auto;html=1;entryX=0.5;entryY=0;entryDx=0;entryDy=0;entryPerimeter=0;" parent="1" source="SWnautVr8U_Q0bgiy1bZ-10" target="SWnautVr8U_Q0bgiy1bZ-11" edge="1">
          <mxGeometry relative="1" as="geometry" />
        </mxCell>
        <mxCell id="SWnautVr8U_Q0bgiy1bZ-13" value="Sells magazines to" style="edgeLabel;html=1;align=center;verticalAlign=middle;resizable=0;points=[];" parent="SWnautVr8U_Q0bgiy1bZ-12" vertex="1" connectable="0">
          <mxGeometry x="-0.1333" y="1" relative="1" as="geometry">
            <mxPoint as="offset" />
          </mxGeometry>
        </mxCell>
        <mxCell id="SWnautVr8U_Q0bgiy1bZ-10" value="Coffee shops" style="rounded=0;whiteSpace=wrap;html=1;fillColor=#d5e8d4;strokeColor=#82b366;" parent="1" vertex="1">
          <mxGeometry x="260" y="510" width="120" height="60" as="geometry" />
        </mxCell>
        <mxCell id="SWnautVr8U_Q0bgiy1bZ-11" value="TrondheimStory Reader" style="shape=umlActor;verticalLabelPosition=bottom;verticalAlign=top;html=1;outlineConnect=0;fillColor=#d5e8d4;strokeColor=#82b366;" parent="1" vertex="1">
          <mxGeometry x="305" y="620" width="30" height="60" as="geometry" />
        </mxCell>
        <mxCell id="SWnautVr8U_Q0bgiy1bZ-15" value="Submits stories to" style="edgeStyle=orthogonalEdgeStyle;rounded=0;orthogonalLoop=1;jettySize=auto;html=1;entryX=0.5;entryY=0;entryDx=0;entryDy=0;" parent="1" source="SWnautVr8U_Q0bgiy1bZ-14" target="SWnautVr8U_Q0bgiy1bZ-1" edge="1">
          <mxGeometry relative="1" as="geometry" />
        </mxCell>
        <mxCell id="SWnautVr8U_Q0bgiy1bZ-14" value="TrondheimStory Storywriter" style="shape=umlActor;verticalLabelPosition=bottom;verticalAlign=top;html=1;outlineConnect=0;fillColor=#d5e8d4;strokeColor=#82b366;" parent="1" vertex="1">
          <mxGeometry x="450" y="20" width="30" height="60" as="geometry" />
        </mxCell>
        <mxCell id="SWnautVr8U_Q0bgiy1bZ-16" value="External actor/unit" style="rounded=0;whiteSpace=wrap;html=1;fillColor=#d5e8d4;strokeColor=#82b366;" parent="1" vertex="1">
          <mxGeometry x="440" y="190" width="100" height="20" as="geometry" />
        </mxCell>
        <mxCell id="SWnautVr8U_Q0bgiy1bZ-18" value="Internal actor/unit" style="rounded=0;whiteSpace=wrap;html=1;" parent="1" vertex="1">
          <mxGeometry x="440" y="220" width="100" height="20" as="geometry" />
        </mxCell>
        <mxCell id="Mu9Wqqmyao0egfqL-Q9Y-1" value="" style="rounded=0;whiteSpace=wrap;html=1;fillColor=none;strokeColor=#FF3333;dashed=1;" vertex="1" parent="1">
          <mxGeometry x="250" y="10" width="300" height="130" as="geometry" />
        </mxCell>
      </root>
    </mxGraphModel>
  </diagram>
</mxfile>
